PathFileType	4	(X/Y/Z)	C:/Users/opensim2020/Desktop/walking_exp_matlab/subject01_walking05_straight_03.trc																																																																																																																															
DataRate	CameraRate	NumFrames	NumMarkers	Units	OrigDataRate	OrigDataStartFrame	OrigNumFrames																																																																																																																											
100	100	5	43	mm	100	2134	223																																																																																																																											
Frame#	Time	LFHD			RFHD			LBHD			RBHD			C7			T10			CLAV			STRN			RBAK			LSHO			LUPA			LELB			LFRM			LWRA			LWRB			LFIN			RSHO			RUPA			RELB			RFRM			RWRA			RWRB			RFIN			LASI			RASI			LPSI			RPSI			LTHI			LKNE			LTIB			LANK			LHEE			LTOE			RTHI			RKNE			RTIB			RANK			RHEE			RTOE			*39			*40			*41			*42		
		X1	Y1	Z1	X2	Y2	Z2	X3	Y3	Z3	X4	Y4	Z4	X5	Y5	Z5	X6	Y6	Z6	X7	Y7	Z7	X8	Y8	Z8	X9	Y9	Z9	X10	Y10	Z10	X11	Y11	Z11	X12	Y12	Z12	X13	Y13	Z13	X14	Y14	Z14	X15	Y15	Z15	X16	Y16	Z16	X17	Y17	Z17	X18	Y18	Z18	X19	Y19	Z19	X20	Y20	Z20	X21	Y21	Z21	X22	Y22	Z22	X23	Y23	Z23	X24	Y24	Z24	X25	Y25	Z25	X26	Y26	Z26	X27	Y27	Z27	X28	Y28	Z28	X29	Y29	Z29	X30	Y30	Z30	X31	Y31	Z31	X32	Y32	Z32	X33	Y33	Z33	X34	Y34	Z34	X35	Y35	Z35	X36	Y36	Z36	X37	Y37	Z37	X38	Y38	Z38	X39	Y39	Z39	X40	Y40	Z40	X41	Y41	Z41	X42	Y42	Z42	X43	Y43	Z43
																																																																																																																																		
56	0.55	-658.98932	1674.8949	-1076.13501	-639.86157	1687.72949	-964.22546	-762.00275	1604.75793	-1059.09521	-744.255	1616.15894	-939.75574	-771.44	1432.53674	-1014.50543	-814.07507	1142.6842	-1007.75604	-626.82629	1365.89063	-1019.53558	-587.26855	1208.42261	-1024.8103	-824.9812	1240.92859	-931.99841	-696.10516	1395.12109	-1177.2887	-745.51489	1214.81995	-1258.36279	-770.42926	1065.48718	-1258.60718	-740.67493	955.06494	-1283.95203	-668.39398	835.50195	-1268.00879	-724.76971	833.31146	-1289.85669	-681.80664	760.35034	-1298.823	-686.75958	1396.09595	-867.42218	-726.1059	1197.76306	-758.56458	-710.9599	1072.1145	-749.10138	-647.56439	968.17578	-717.93469	-531.8681	886.34467	-736.2489	-574.15332	872.32031	-698.10651	-512.32733	812.76544	-697.94641	-648.19147	934.00256	-1118.87939	-651.85028	928.26874	-900.9256	-835.00201	947.79034	-1071.99902	-837.6947	952.20837	-927.69385	-589.43646	625.02728	-1194.02686	-565.69037	491.97937	-1181.02222	-627.80554	312.31262	-1189.6676	-662.41974	95.82491	-1143.32861	-697.039	64.81113	-1082.02197	-527.87439	51.8922	-1177.16321	-739.51746	598.77991	-863.30957	-747.64618	440.97415	-893.79907	-813.82593	276.7746	-896.65283	-846.09607	74.31219	-958.15564	-893.0788	40.7002	-1013.37372	-706.73987	31.52839	-951.46942	-660.88635	1716.65771	-986.06525	1973.16919	1023.99939	-3102.04736	2013.20862	1022.3501	-3138.13452	NaN	NaN	NaN
57	0.56	-651.44122	1674.26575	-1076.26794	-632.3902	1687.224	-964.33087	-754.32587	1603.95947	-1059.02222	-736.63055	1615.62622	-939.75574	-763.57062	1431.95715	-1014.19958	-806.07935	1142.08618	-1007.38348	-618.91382	1365.30164	-1019.01105	-579.27905	1207.85767	-1024.57471	-816.82001	1240.37329	-931.42438	-688.29523	1394.49084	-1176.89758	-738.62073	1214.34607	-1257.93579	-764.3689	1065.2688	-1257.69397	-736.01953	954.47205	-1282.73804	-665.7746	833.52374	-1265.92957	-722.00818	832.54834	-1288.35986	-680.26593	758.6142	-1296.75439	-678.57581	1396.05017	-867.58136	-716.95703	1197.81995	-758.06866	-701.65344	1072.24805	-748.27771	-636.62225	969.15985	-717.25269	-519.87225	888.95978	-735.69861	-561.54962	874.27606	-697.5285	-499.10214	815.47382	-697.61792	-639.90997	933.41492	-1118.17871	-644.22473	927.65698	-900.28644	-826.87567	947.36847	-1072.00549	-829.9978	951.82501	-927.80316	-582.1275	623.83289	-1193.14807	-557.96997	491.06543	-1179.65564	-610.9917	308.99429	-1189.45862	-632.78174	90.092	-1143.62634	-666.7384	57.42471	-1082.6665	-495.47528	53.32517	-1175.15833	-734.70923	598.41248	-863.15979	-744.66541	440.62616	-893.8587	-811.88507	276.96735	-896.64392	-846.64368	74.96867	-958.17932	-892.29352	40.69935	-1013.46533	-706.64227	31.52109	-951.50183	-653.22357	1716.19531	-986.19122	1972.67932	1024.53955	-3103.05078	2013.08398	1022.30511	-3138.37231	NaN	NaN	NaN
58	0.57	-643.83148	1673.56482	-1076.48401	-624.71222	1686.71106	-964.51538	-746.59088	1603.07556	-1059.08899	-728.90265	1614.89453	-939.89624	-755.61603	1431.2406	-1013.99567	-798.08435	1141.40503	-1007.203	-610.83032	1364.75708	-1019.30707	-571.28589	1207.23572	-1024.39539	-808.64081	1239.70374	-930.96973	-680.45392	1393.86633	-1176.82227	-731.61755	1213.74915	-1257.57739	-758.24408	1064.96985	-1256.98645	-731.19769	953.93195	-1281.69214	-662.90564	831.83972	-1264.09119	-718.90381	831.74335	-1287.03857	-678.58636	756.85889	-1294.61365	-670.40442	1395.95886	-867.59821	-707.74792	1197.89197	-757.58203	-692.14661	1072.34058	-747.53632	-625.81091	970.04846	-716.59253	-508.17227	891.27924	-735.31555	-549.60919	876.12531	-696.99005	-486.24591	818.0246	-697.29968	-631.28876	932.92407	-1117.68896	-636.60492	926.91016	-899.71417	-818.57477	946.85687	-1072.08374	-822.5354	951.52155	-928.00195	-575.25891	622.38135	-1192.36743	-550.68524	489.93338	-1178.34106	-594.83289	306.22638	-1189.23181	-603.40887	85.17345	-1143.9613	-636.73059	51.16483	-1083.52612	-463.40121	56.14941	-1172.86243	-730.03247	598.00311	-863.09045	-741.91998	440.39697	-893.94281	-810.08307	277.13861	-896.77521	-846.38251	75.47133	-958.27362	-891.97571	41.13471	-1013.6416	-706.38971	31.48886	-951.38293	-645.73676	1715.4939	-986.50696	1973.14526	1024.0459	-3101.85474	2013.15649	1022.34082	-3138.25635	NaN	NaN	NaN
59	0.58	-636.22552	1672.79797	-1076.74622	-617.22803	1686.00757	-964.78241	-738.79797	1602.14844	-1059.26501	-721.24231	1614.19226	-940.0531	-747.77148	1430.53064	-1013.90442	-789.97498	1140.63501	-1007.11298	-602.74774	1364.05273	-1019.41095	-563.17865	1206.55249	-1024.35156	-800.41431	1238.99951	-930.60022	-672.57996	1393.13086	-1176.78699	-724.56097	1213.08398	-1257.36865	-752.00641	1064.63391	-1256.38599	-726.19977	953.20239	-1280.68994	-659.6521	830.13245	-1262.41919	-715.47308	830.87885	-1285.82568	-676.33252	755.05176	-1292.24182	-662.28583	1395.68896	-867.78571	-698.54779	1197.8999	-757.00385	-682.41241	1072.48364	-746.91888	-615.31494	970.84778	-716.03387	-496.64871	893.44891	-735.07263	-537.7373	877.84094	-696.57306	-473.86676	820.36914	-697.09576	-622.71942	932.25342	-1117.08142	-629.0061	926.01672	-899.26154	-810.16199	946.31622	-1072.19788	-814.13556	950.95856	-928.19623	-568.65234	620.80591	-1191.86584	-543.55438	488.67267	-1177.03125	-578.6369	303.71432	-1188.65295	-574.3772	81.43158	-1144.26221	-606.9024	45.89999	-1084.4856	-432.35242	59.92489	-1170.42944	-725.25488	597.70483	-863.00952	-738.90228	440.10144	-894.03906	-808.36035	277.68011	-896.7149	-846.30634	76.05043	-958.32605	-891.3443	41.4234	-1013.89026	-706.53583	31.39462	-951.48767	-638.24219	1714.87158	-986.71521	1972.80212	1023.8728	-3102.89648	2013.14185	1022.35193	-3138.23315	NaN	NaN	NaN
60	0.59	-628.52924	1671.97778	-1077.00366	-609.46838	1685.25439	-965.10394	-730.95728	1601.14709	-1059.5072	-713.28528	1613.20996	-940.27655	-739.43048	1429.53918	-1013.91754	-781.8562	1139.77185	-1007.11719	-594.61993	1363.3031	-1019.6637	-555.04016	1205.82458	-1024.43054	-792.18616	1238.28564	-930.37665	-664.66254	1392.34167	-1176.9115	-717.4566	1212.31128	-1257.24829	-745.63904	1064.1333	-1255.9635	-720.95245	952.4397	-1279.8739	-656.08282	828.49994	-1260.86682	-711.75372	830.00183	-1284.72327	-673.78479	753.32007	-1290.76135	-654.10602	1394.88879	-868.3656	-689.37714	1197.81665	-756.59949	-673.09705	1072.42664	-746.27527	-604.92596	971.38763	-715.53308	-485.51791	895.29315	-734.95447	-526.53589	879.3324	-696.26709	-461.86212	822.70367	-697.0929	-613.9281	931.48944	-1116.52917	-621.185	925.09546	-898.82068	-801.56879	945.69214	-1072.38599	-805.99738	950.43842	-928.44922	-562.62598	618.55011	-1191.46667	-536.65344	487.07443	-1175.63757	-562.93622	301.4938	-1188.08765	-546.1355	78.97208	-1144.45703	-577.98578	41.6879	-1085.34827	-402.44495	64.23669	-1167.75134	-720.16125	597.25989	-862.96942	-735.70599	439.97708	-894.04657	-806.49603	278.0087	-896.79749	-845.35565	76.52224	-958.37128	-891.50592	42.68032	-1013.99585	-706.49548	31.50033	-951.31622	-630.52155	1713.96777	-987.03998	1973.14441	1023.94519	-3102.16479	NaN	NaN	NaN	NaN	NaN	NaN
